# xmcd
#
# Track frame offsets:
#	150
#	11495
#	25047
#	38958
#	55965
#	69269
#	87661
#	105725
#	117797
#	128630
#	143872
#	152218
#	168652
#	180549
#	192699
#	205013
#	218084
#	233284
#	249577
#	259801
#	268227
#
# Disc length: 3740 seconds
#
# Revision: 0
# Processed by: cddbd v1.4PL0 Copyright (c) Steve Scherf et al.
# Submitted via: dBpowerAMP V4.0
#
DISCID=2a0e9a15
DTITLE=gil - o baianinho do forro
DYEAR=1900
DGENRE=
TTITLE0=Adeus Mariana
TTITLE1=Para Pedro
TTITLE2=Na Minha Terra Tem Quem Queira
TTITLE3=Tao Pedindo Vanerao
TTITLE4=Joao Tatu
TTITLE5=Me Enganei Com Minha Noiva
TTITLE6=Benedita Aparecida
TTITLE7=Cobra Sucuri
TTITLE8=Briga No Batizado
TTITLE9=Surda Emuda
TTITLE10=Gaucho De Baje
TTITLE11=A Volta Do Tordilho Nergro
TTITLE12=O Rei Do Baralho
TTITLE13=Coracao De Luto
TTITLE14=Meu Velho Pai
TTITLE15=Menino Da Porteira
TTITLE16=E Disso Que O Velho Gosta E Isso Que O Velho Quer
TTITLE17=Mulher Cachaca E Viola
TTITLE18=O Velha Jura Qeu Quer
TTITLE19=Achando Que A Vida E Beleza
TTITLE20=O Ebrio
EXTD=
EXTT0=
EXTT1=
EXTT2=
EXTT3=
EXTT4=
EXTT5=
EXTT6=
EXTT7=
EXTT8=
EXTT9=
EXTT10=
EXTT11=
EXTT12=
EXTT13=
EXTT14=
EXTT15=
EXTT16=
EXTT17=
EXTT18=
EXTT19=
EXTT20=
PLAYORDER=
